# Blender v3.1.2 OBJ File: ''
# www.blender.org
mtllib 4.mtl
o untitled-3
v -0.300000 0.200000 0.200000
v -0.300000 0.100000 0.000000
v -0.300000 0.100000 0.200000
v -0.300000 0.200000 0.000000
v -0.200000 0.100000 0.100000
v -0.200000 0.000000 -0.100000
v -0.200000 -0.000000 0.100000
v -0.200000 0.100000 0.000000
v -0.200000 0.200000 0.000000
v -0.200000 0.200000 -0.100000
v -0.100000 0.100000 -0.100000
v -0.100000 0.000000 -0.200000
v -0.100000 0.000000 -0.100000
v -0.100000 0.100000 -0.200000
v -0.100000 0.300000 0.100000
v -0.100000 0.200000 0.100000
v -0.100000 0.200000 -0.100000
v -0.100000 0.300000 -0.100000
v 0.000000 0.200000 -0.100000
v 0.000000 0.100000 -0.200000
v 0.000000 0.100000 -0.100000
v 0.000000 0.200000 -0.200000
v 0.100000 0.100000 0.200000
v 0.100000 0.100000 0.100000
v 0.100000 0.200000 0.200000
v 0.100000 0.200000 0.100000
v 0.100000 0.200000 -0.100000
v 0.100000 0.300000 0.100000
v 0.100000 0.300000 -0.100000
v 0.200000 -0.000000 0.100000
v 0.200000 0.000000 -0.100000
v 0.200000 0.100000 0.000000
v 0.200000 0.000000 -0.200000
v 0.200000 0.100000 -0.100000
v 0.200000 0.100000 -0.200000
v 0.200000 0.200000 0.100000
v 0.200000 0.200000 0.000000
v 0.300000 0.100000 0.000000
v 0.300000 0.100000 -0.200000
v 0.300000 0.200000 0.000000
v 0.300000 0.200000 -0.200000
v 0.100000 0.100000 0.200000
v -0.300000 0.200000 0.200000
v -0.300000 0.100000 0.200000
v 0.100000 0.200000 0.200000
v 0.100000 0.100000 0.100000
v -0.200000 0.100000 0.100000
v -0.200000 -0.000000 0.100000
v 0.100000 0.200000 0.100000
v -0.100000 0.300000 0.100000
v -0.100000 0.200000 0.100000
v 0.100000 0.300000 0.100000
v 0.200000 -0.000000 0.100000
v 0.200000 0.200000 0.100000
v 0.300000 0.100000 0.000000
v 0.200000 0.200000 0.000000
v 0.200000 0.100000 0.000000
v 0.300000 0.200000 0.000000
v -0.300000 0.100000 0.000000
v -0.300000 0.200000 0.000000
v -0.200000 0.100000 0.000000
v -0.200000 0.200000 0.000000
v -0.200000 0.000000 -0.100000
v -0.200000 0.200000 -0.100000
v -0.100000 0.000000 -0.100000
v -0.100000 0.100000 -0.100000
v -0.100000 0.200000 -0.100000
v 0.000000 0.100000 -0.100000
v -0.100000 0.300000 -0.100000
v 0.000000 0.200000 -0.100000
v 0.100000 0.200000 -0.100000
v 0.100000 0.300000 -0.100000
v -0.100000 0.000000 -0.200000
v -0.100000 0.100000 -0.200000
v 0.000000 0.000000 -0.200000
v 0.000000 0.100000 -0.200000
v 0.200000 0.000000 -0.200000
v 0.000000 0.200000 -0.200000
v 0.200000 0.100000 -0.200000
v 0.300000 0.100000 -0.200000
v 0.300000 0.200000 -0.200000
v -0.200000 0.000000 -0.100000
v 0.200000 -0.000000 0.100000
v -0.200000 -0.000000 0.100000
v -0.100000 0.000000 -0.100000
v 0.000000 0.000000 -0.100000
v 0.200000 0.000000 -0.100000
v -0.100000 0.000000 -0.200000
v 0.000000 0.000000 -0.200000
v 0.200000 0.000000 -0.200000
v -0.200000 0.100000 0.100000
v 0.100000 0.100000 0.200000
v -0.300000 0.100000 0.200000
v 0.100000 0.100000 0.100000
v -0.300000 0.100000 0.000000
v -0.200000 0.100000 0.000000
v 0.300000 0.100000 0.000000
v 0.200000 0.100000 0.000000
v 0.200000 0.100000 -0.200000
v 0.300000 0.100000 -0.200000
v -0.100000 0.100000 -0.100000
v 0.000000 0.100000 -0.100000
v -0.100000 0.100000 -0.200000
v 0.000000 0.100000 -0.200000
v -0.300000 0.200000 0.200000
v 0.100000 0.200000 0.200000
v -0.200000 0.200000 0.100000
v -0.100000 0.200000 0.100000
v 0.100000 0.200000 0.100000
v -0.300000 0.200000 0.000000
v -0.200000 0.200000 0.000000
v -0.100000 0.200000 0.000000
v 0.200000 0.200000 0.100000
v 0.200000 0.200000 0.000000
v -0.200000 0.200000 -0.100000
v -0.100000 0.200000 -0.100000
v 0.100000 0.200000 -0.100000
v 0.300000 0.200000 0.000000
v 0.200000 0.200000 -0.100000
v 0.000000 0.200000 -0.100000
v 0.000000 0.200000 -0.200000
v 0.300000 0.200000 -0.200000
v -0.100000 0.300000 0.100000
v 0.100000 0.300000 0.100000
v -0.100000 0.300000 -0.100000
v 0.100000 0.300000 -0.100000
vt 0.849609 0.500000
vt 0.849609 0.500000
vt 0.849609 0.500000
vt 0.849609 0.500000
vt 0.849609 0.500000
vt 0.849609 0.500000
vt 0.849609 0.500000
vt 0.849609 0.500000
vt 0.849609 0.500000
vt 0.849609 0.500000
vt 0.849609 0.500000
vt 0.849609 0.500000
vt 0.849609 0.500000
vt 0.849609 0.500000
vt 0.849609 0.500000
vt 0.849609 0.500000
vt 0.849609 0.500000
vt 0.958984 0.500000
vt 0.958984 0.500000
vt 0.958984 0.500000
vt 0.958984 0.500000
vt 0.849609 0.500000
vt 0.849609 0.500000
vt 0.849609 0.500000
vt 0.849609 0.500000
vt 0.849609 0.500000
vt 0.849609 0.500000
vt 0.849609 0.500000
vt 0.958984 0.500000
vt 0.958984 0.500000
vt 0.958984 0.500000
vt 0.958984 0.500000
vt 0.849609 0.500000
vt 0.849609 0.500000
vt 0.849609 0.500000
vt 0.849609 0.500000
vt 0.849609 0.500000
vt 0.849609 0.500000
vt 0.849609 0.500000
vt 0.849609 0.500000
vt 0.849609 0.500000
vt 0.849609 0.500000
vt 0.849609 0.500000
vt 0.849609 0.500000
vt 0.849609 0.500000
vt 0.849609 0.500000
vt 0.849609 0.500000
vt 0.849609 0.500000
vt 0.880859 0.500000
vt 0.880859 0.500000
vt 0.880859 0.500000
vt 0.880859 0.500000
vt 0.880859 0.500000
vt 0.880859 0.500000
vt 0.880859 0.500000
vt 0.849609 0.500000
vt 0.849609 0.500000
vt 0.849609 0.500000
vt 0.849609 0.500000
vt 0.849609 0.500000
vt 0.849609 0.500000
vt 0.849609 0.500000
vt 0.849609 0.500000
vt 0.880859 0.500000
vt 0.880859 0.500000
vt 0.880859 0.500000
vt 0.880859 0.500000
vt 0.880859 0.500000
vt 0.880859 0.500000
vt 0.880859 0.500000
vt 0.880859 0.500000
vt 0.880859 0.500000
vt 0.880859 0.500000
vt 0.880859 0.500000
vt 0.880859 0.500000
vt 0.849609 0.500000
vt 0.849609 0.500000
vt 0.849609 0.500000
vt 0.849609 0.500000
vt 0.880859 0.500000
vt 0.880859 0.500000
vt 0.880859 0.500000
vt 0.880859 0.500000
vt 0.880859 0.500000
vt 0.880859 0.500000
vt 0.880859 0.500000
vt 0.880859 0.500000
vt 0.880859 0.500000
vt 0.880859 0.500000
vt 0.880859 0.500000
vt 0.880859 0.500000
vt 0.880859 0.500000
vt 0.880859 0.500000
vt 0.849609 0.500000
vt 0.849609 0.500000
vt 0.849609 0.500000
vt 0.849609 0.500000
vt 0.880859 0.500000
vt 0.880859 0.500000
vt 0.880859 0.500000
vt 0.880859 0.500000
vt 0.880859 0.500000
vt 0.880859 0.500000
vt 0.880859 0.500000
vt 0.880859 0.500000
vt 0.880859 0.500000
vt 0.880859 0.500000
vt 0.958984 0.500000
vt 0.958984 0.500000
vt 0.958984 0.500000
vt 0.958984 0.500000
vt 0.880859 0.500000
vt 0.880859 0.500000
vt 0.880859 0.500000
vt 0.880859 0.500000
vt 0.880859 0.500000
vt 0.880859 0.500000
vt 0.880859 0.500000
vt 0.880859 0.500000
vt 0.880859 0.500000
vt 0.880859 0.500000
vt 0.880859 0.500000
vt 0.880859 0.500000
vt 0.880859 0.500000
vt 0.880859 0.500000
vt 0.958984 0.500000
vt 0.958984 0.500000
vt 0.958984 0.500000
vt 0.958984 0.500000
vt 0.849609 0.500000
vt 0.849609 0.500000
vt 0.849609 0.500000
vt 0.849609 0.500000
vt 0.880859 0.500000
vt 0.880859 0.500000
vt 0.880859 0.500000
vt 0.880859 0.500000
vt 0.880859 0.500000
vt 0.880859 0.500000
vt 0.880859 0.500000
vt 0.880859 0.500000
vt 0.880859 0.500000
vt 0.880859 0.500000
vt 0.849609 0.500000
vt 0.849609 0.500000
vt 0.849609 0.500000
vt 0.849609 0.500000
vn 0.0000 -1.0000 -0.0000
vn -1.0000 0.0000 0.0000
vn 0.0000 0.0000 -1.0000
vn -0.0000 1.0000 0.0000
vn 1.0000 -0.0000 0.0000
vn 0.0000 -0.0000 1.0000
usemtl palette.005
s 1
f 89/1/1 86/2/1 85/3/1 88/4/1
f 22/5/2 20/6/2 21/7/2 19/8/2
f 69/9/3 72/10/3 71/11/3 70/12/3 67/13/3
f 74/14/3 76/15/3 75/16/3 73/17/3
f 76/18/3 79/19/3 77/20/3 75/21/3
f 122/22/4 121/23/4 120/24/4 117/25/4 119/26/4 114/27/4 118/28/4
f 33/29/5 35/30/5 34/31/5 31/32/5
f 102/33/4 104/34/4 103/35/4 101/36/4
f 124/37/4 126/38/4 125/39/4 123/40/4
f 39/41/5 41/42/5 40/43/5 38/44/5
f 27/45/5 29/46/5 28/47/5 26/48/5
f 67/49/3 70/50/3 68/51/3 66/52/3 65/53/3 63/54/3 64/55/3
f 18/56/2 17/57/2 16/58/2 15/59/2
f 58/60/6 56/61/6 57/62/6 55/63/6
f 31/64/5 34/65/5 32/66/5 37/67/5 36/68/5 30/69/5
f 10/70/2 6/71/2 7/72/2 5/73/2 8/74/2 9/75/2
f 14/76/2 12/77/2 13/78/2 11/79/2
f 24/80/5 26/81/5 25/82/5 23/83/5
f 91/84/1 94/85/1 92/86/1 93/87/1 95/88/1 96/89/1
f 4/90/2 2/91/2 3/92/2 1/93/2
f 52/94/6 50/95/6 51/96/6 49/97/6
f 60/98/3 62/99/3 61/100/3 59/101/3
f 83/102/1 84/103/1 82/104/1 85/105/1 86/106/1 87/107/1
f 90/108/1 87/109/1 86/110/1 89/111/1
f 112/112/4 116/113/4 115/114/4 111/115/4
f 114/116/4 119/117/4 117/118/4 109/119/4 113/120/4
f 108/121/4 107/122/4 111/115/4 110/123/4 105/124/4 106/125/4 109/119/4
f 108/126/4 112/127/4 111/128/4 107/129/4
f 80/130/3 79/131/3 76/15/3 78/132/3 81/133/3
f 49/134/6 46/135/6 47/136/6 48/137/6 53/138/6 54/139/6
f 45/140/6 43/141/6 44/142/6 42/143/6
f 97/144/1 98/145/1 99/146/1 100/147/1
