# Blender v2.83.1 OBJ File: ''
# www.blender.org
mtllib wolfSword.mtl
o ObjObject
v -0.200000 0.600000 0.047783
v -0.200000 0.500000 -0.052217
v -0.200000 0.500000 0.047783
v -0.200000 0.600000 -0.052217
v -0.100000 0.200000 0.047783
v -0.100000 0.100000 -0.052217
v -0.100000 0.100000 0.047783
v -0.100000 0.200000 -0.052217
v -0.100000 0.700000 0.047783
v -0.100000 0.600000 -0.052217
v -0.100000 0.600000 0.047783
v -0.100000 0.600000 0.147783
v -0.100000 0.700000 -0.052217
v -0.100000 0.600000 -0.152217
v -0.100000 1.500000 0.147783
v -0.100000 1.500000 0.047783
v -0.100000 1.500000 -0.052217
v -0.100000 1.500000 -0.152217
v -0.100000 1.700000 0.047783
v -0.100000 1.700000 -0.052217
v 0.000000 0.100000 0.047783
v 0.000000 0.000000 -0.052217
v 0.000000 0.000000 0.047783
v 0.000000 0.100000 -0.052217
v 0.000000 0.200000 0.147783
v 0.000000 0.100000 0.147783
v 0.000000 0.200000 0.047783
v 0.000000 0.200000 -0.052217
v 0.000000 0.100000 -0.152217
v 0.000000 0.200000 -0.152217
v 0.000000 0.500000 0.047783
v 0.000000 0.500000 -0.052217
v 0.000000 0.600000 0.147783
v 0.000000 0.500000 0.147783
v 0.000000 0.600000 0.047783
v 0.000000 0.600000 -0.052217
v 0.000000 0.500000 -0.152217
v 0.000000 0.600000 -0.152217
v -0.100000 0.500000 0.047783
v -0.100000 0.500000 -0.052217
v -0.100000 0.600000 0.047783
v -0.100000 0.600000 -0.052217
v 0.000000 1.300000 0.147783
v 0.000000 1.300000 0.047783
v 0.000000 1.500000 0.147783
v 0.000000 1.500000 0.047783
v 0.000000 1.300000 -0.052217
v 0.000000 1.300000 -0.152217
v 0.000000 1.500000 -0.052217
v 0.000000 1.500000 -0.152217
v 0.000000 1.700000 0.047783
v 0.000000 1.700000 -0.052217
v 0.100000 0.000000 0.047783
v 0.100000 0.000000 -0.052217
v 0.100000 0.100000 0.047783
v 0.100000 0.100000 -0.052217
v 0.100000 0.100000 0.147783
v 0.100000 0.200000 0.147783
v 0.100000 0.200000 0.047783
v 0.100000 0.100000 -0.152217
v 0.100000 0.200000 -0.052217
v 0.100000 0.200000 -0.152217
v 0.100000 0.500000 0.047783
v 0.100000 0.500000 -0.052217
v 0.100000 0.500000 0.147783
v 0.100000 0.600000 0.047783
v 0.100000 0.500000 -0.152217
v 0.100000 0.600000 -0.052217
v 0.100000 0.700000 0.147783
v 0.100000 0.700000 0.047783
v 0.100000 0.700000 -0.052217
v 0.100000 0.700000 -0.152217
v 0.100000 0.800000 0.147783
v 0.100000 0.800000 0.047783
v 0.100000 1.100000 0.047783
v 0.100000 0.800000 -0.052217
v 0.100000 0.800000 -0.152217
v 0.100000 1.100000 -0.052217
v 0.100000 1.300000 0.147783
v 0.100000 1.300000 0.047783
v 0.100000 1.300000 -0.052217
v 0.100000 1.300000 -0.152217
v 0.100000 1.500000 0.047783
v 0.100000 1.500000 -0.052217
v 0.200000 0.100000 0.047783
v 0.200000 0.100000 -0.052217
v 0.200000 0.200000 0.047783
v 0.200000 0.200000 -0.052217
v 0.200000 0.600000 0.047783
v 0.200000 0.600000 -0.052217
v 0.200000 0.700000 0.047783
v 0.200000 0.700000 -0.052217
v 0.200000 0.700000 0.147783
v 0.200000 0.800000 0.147783
v 0.200000 0.800000 0.047783
v 0.200000 0.700000 -0.152217
v 0.200000 0.800000 -0.052217
v 0.200000 0.800000 -0.152217
v 0.200000 1.100000 0.047783
v 0.200000 1.100000 -0.052217
v 0.300000 0.700000 0.047783
v 0.300000 0.700000 -0.052217
v 0.300000 0.800000 0.047783
v 0.300000 0.800000 -0.052217
v 0.000000 0.600000 0.147783
v -0.100000 1.500000 0.147783
v -0.100000 0.600000 0.147783
v 0.000000 0.700000 0.147783
v 0.000000 1.300000 0.147783
v 0.000000 1.500000 0.147783
v 0.100000 0.100000 0.147783
v 0.000000 0.200000 0.147783
v 0.000000 0.100000 0.147783
v 0.100000 0.200000 0.147783
v 0.100000 0.500000 0.147783
v 0.000000 0.500000 0.147783
v 0.100000 0.700000 0.147783
v 0.100000 0.800000 0.147783
v 0.100000 1.300000 0.147783
v 0.200000 0.700000 0.147783
v 0.200000 0.800000 0.147783
v -0.100000 0.500000 0.047783
v -0.200000 0.600000 0.047783
v -0.200000 0.500000 0.047783
v -0.100000 0.600000 0.047783
v 0.000000 0.100000 0.047783
v -0.100000 0.200000 0.047783
v -0.100000 0.100000 0.047783
v 0.000000 0.200000 0.047783
v 0.000000 1.500000 0.047783
v -0.100000 1.700000 0.047783
v -0.100000 1.500000 0.047783
v 0.000000 1.700000 0.047783
v 0.100000 0.000000 0.047783
v 0.000000 0.000000 0.047783
v 0.100000 0.100000 0.047783
v 0.100000 0.200000 0.047783
v 0.000000 0.500000 0.047783
v 0.100000 0.500000 0.047783
v 0.100000 1.300000 0.047783
v 0.000000 1.300000 0.047783
v 0.100000 1.500000 0.047783
v 0.200000 0.100000 0.047783
v 0.200000 0.200000 0.047783
v 0.200000 0.600000 0.047783
v 0.100000 0.700000 0.047783
v 0.100000 0.600000 0.047783
v 0.200000 0.700000 0.047783
v 0.200000 0.800000 0.047783
v 0.100000 1.100000 0.047783
v 0.100000 0.800000 0.047783
v 0.200000 1.100000 0.047783
v 0.300000 0.700000 0.047783
v 0.300000 0.800000 0.047783
v -0.200000 0.500000 -0.052217
v -0.200000 0.600000 -0.052217
v -0.100000 0.500000 -0.052217
v -0.100000 0.600000 -0.052217
v -0.100000 0.100000 -0.052217
v -0.100000 0.200000 -0.052217
v 0.000000 0.100000 -0.052217
v 0.000000 0.200000 -0.052217
v -0.100000 1.500000 -0.052217
v -0.100000 1.700000 -0.052217
v 0.000000 1.500000 -0.052217
v 0.000000 1.700000 -0.052217
v 0.000000 0.000000 -0.052217
v 0.100000 0.000000 -0.052217
v 0.100000 0.100000 -0.052217
v 0.000000 0.500000 -0.052217
v 0.100000 0.200000 -0.052217
v 0.100000 0.500000 -0.052217
v 0.000000 1.300000 -0.052217
v 0.100000 1.300000 -0.052217
v 0.100000 1.500000 -0.052217
v 0.200000 0.100000 -0.052217
v 0.200000 0.200000 -0.052217
v 0.100000 0.600000 -0.052217
v 0.100000 0.700000 -0.052217
v 0.200000 0.600000 -0.052217
v 0.200000 0.700000 -0.052217
v 0.100000 0.800000 -0.052217
v 0.100000 1.100000 -0.052217
v 0.200000 0.800000 -0.052217
v 0.200000 1.100000 -0.052217
v 0.300000 0.700000 -0.052217
v 0.300000 0.800000 -0.052217
v -0.100000 0.600000 -0.152217
v -0.100000 1.500000 -0.152217
v 0.000000 0.600000 -0.152217
v 0.000000 0.700000 -0.152217
v 0.000000 1.300000 -0.152217
v 0.000000 1.500000 -0.152217
v 0.000000 0.100000 -0.152217
v 0.000000 0.200000 -0.152217
v 0.100000 0.100000 -0.152217
v 0.100000 0.200000 -0.152217
v 0.000000 0.500000 -0.152217
v 0.100000 0.500000 -0.152217
v 0.100000 0.700000 -0.152217
v 0.100000 0.800000 -0.152217
v 0.100000 1.300000 -0.152217
v 0.200000 0.700000 -0.152217
v 0.200000 0.800000 -0.152217
v 0.000000 0.000000 -0.052217
v 0.100000 0.000000 0.047783
v 0.000000 0.000000 0.047783
v 0.100000 0.000000 -0.052217
v 0.000000 0.100000 0.047783
v 0.100000 0.100000 0.147783
v 0.000000 0.100000 0.147783
v 0.100000 0.100000 0.047783
v -0.100000 0.100000 -0.052217
v -0.100000 0.100000 0.047783
v 0.000000 0.100000 -0.052217
v 0.100000 0.100000 -0.052217
v 0.200000 0.100000 0.047783
v 0.200000 0.100000 -0.052217
v 0.000000 0.100000 -0.152217
v 0.100000 0.100000 -0.152217
v 0.000000 0.500000 0.047783
v 0.100000 0.500000 0.147783
v 0.000000 0.500000 0.147783
v 0.100000 0.500000 0.047783
v -0.200000 0.500000 -0.052217
v -0.100000 0.500000 0.047783
v -0.200000 0.500000 0.047783
v -0.100000 0.500000 -0.052217
v 0.000000 0.500000 -0.152217
v 0.100000 0.500000 -0.052217
v 0.000000 0.500000 -0.052217
v 0.100000 0.500000 -0.152217
v -0.100000 0.600000 0.047783
v 0.000000 0.600000 0.147783
v -0.100000 0.600000 0.147783
v 0.000000 0.600000 0.047783
v -0.100000 0.600000 -0.052217
v 0.000000 0.600000 -0.052217
v 0.100000 0.600000 -0.052217
v 0.200000 0.600000 0.047783
v 0.100000 0.600000 0.047783
v 0.200000 0.600000 -0.052217
v -0.100000 0.600000 -0.152217
v 0.000000 0.600000 -0.152217
v 0.100000 0.700000 0.047783
v 0.200000 0.700000 0.147783
v 0.100000 0.700000 0.147783
v 0.200000 0.700000 0.047783
v 0.200000 0.700000 -0.052217
v 0.300000 0.700000 0.047783
v 0.300000 0.700000 -0.052217
v 0.100000 0.700000 -0.152217
v 0.100000 0.700000 -0.052217
v 0.200000 0.700000 -0.152217
v 0.000000 0.200000 0.147783
v 0.100000 0.200000 0.147783
v 0.000000 0.200000 0.047783
v 0.100000 0.200000 0.047783
v -0.100000 0.200000 0.047783
v -0.100000 0.200000 -0.052217
v 0.000000 0.200000 -0.052217
v 0.200000 0.200000 0.047783
v 0.100000 0.200000 -0.052217
v 0.200000 0.200000 -0.052217
v 0.000000 0.200000 -0.152217
v 0.100000 0.200000 -0.152217
v -0.200000 0.600000 0.047783
v -0.100000 0.600000 0.047783
v -0.200000 0.600000 -0.052217
v -0.100000 0.600000 -0.052217
v 0.100000 0.800000 0.147783
v 0.200000 0.800000 0.147783
v 0.100000 0.800000 0.047783
v 0.200000 0.800000 0.047783
v 0.300000 0.800000 0.047783
v 0.200000 0.800000 -0.052217
v 0.300000 0.800000 -0.052217
v 0.100000 0.800000 -0.052217
v 0.100000 0.800000 -0.152217
v 0.200000 0.800000 -0.152217
v 0.100000 1.100000 0.047783
v 0.200000 1.100000 0.047783
v 0.100000 1.100000 -0.052217
v 0.200000 1.100000 -0.052217
v 0.000000 1.300000 0.147783
v 0.100000 1.300000 0.147783
v 0.000000 1.300000 0.047783
v 0.100000 1.300000 0.047783
v 0.000000 1.300000 -0.052217
v 0.100000 1.300000 -0.052217
v 0.000000 1.300000 -0.152217
v 0.100000 1.300000 -0.152217
v -0.100000 1.500000 0.147783
v 0.000000 1.500000 0.147783
v -0.100000 1.500000 0.047783
v 0.000000 1.500000 0.047783
v 0.100000 1.500000 0.047783
v 0.000000 1.500000 -0.052217
v 0.100000 1.500000 -0.052217
v -0.100000 1.500000 -0.052217
v -0.100000 1.500000 -0.152217
v 0.000000 1.500000 -0.152217
v -0.100000 1.700000 0.047783
v 0.000000 1.700000 0.047783
v -0.100000 1.700000 -0.052217
v 0.000000 1.700000 -0.052217
vt 0.916016 0.500000
vt 0.916016 0.500000
vt 0.916016 0.500000
vt 0.916016 0.500000
vt 0.916016 0.500000
vt 0.916016 0.500000
vt 0.916016 0.500000
vt 0.916016 0.500000
vt 0.916016 0.500000
vt 0.916016 0.500000
vt 0.916016 0.500000
vt 0.916016 0.500000
vt 0.947266 0.500000
vt 0.947266 0.500000
vt 0.947266 0.500000
vt 0.947266 0.500000
vt 0.947266 0.500000
vt 0.947266 0.500000
vt 0.947266 0.500000
vt 0.947266 0.500000
vt 0.916016 0.500000
vt 0.916016 0.500000
vt 0.916016 0.500000
vt 0.951172 0.500000
vt 0.951172 0.500000
vt 0.951172 0.500000
vt 0.951172 0.500000
vt 0.947266 0.500000
vt 0.947266 0.500000
vt 0.947266 0.500000
vt 0.947266 0.500000
vt 0.947266 0.500000
vt 0.947266 0.500000
vt 0.947266 0.500000
vt 0.947266 0.500000
vt 0.916016 0.500000
vt 0.916016 0.500000
vt 0.916016 0.500000
vt 0.916016 0.500000
vt 0.947266 0.500000
vt 0.947266 0.500000
vt 0.947266 0.500000
vt 0.947266 0.500000
vt 0.947266 0.500000
vt 0.947266 0.500000
vt 0.947266 0.500000
vt 0.947266 0.500000
vt 0.947266 0.500000
vt 0.916016 0.500000
vt 0.916016 0.500000
vt 0.916016 0.500000
vt 0.916016 0.500000
vt 0.947266 0.500000
vt 0.947266 0.500000
vt 0.947266 0.500000
vt 0.947266 0.500000
vt 0.916016 0.500000
vt 0.916016 0.500000
vt 0.916016 0.500000
vt 0.916016 0.500000
vt 0.916016 0.500000
vt 0.916016 0.500000
vt 0.916016 0.500000
vt 0.916016 0.500000
vt 0.947266 0.500000
vt 0.947266 0.500000
vt 0.947266 0.500000
vt 0.947266 0.500000
vt 0.947266 0.500000
vt 0.947266 0.500000
vt 0.947266 0.500000
vt 0.947266 0.500000
vt 0.916016 0.500000
vt 0.916016 0.500000
vt 0.916016 0.500000
vt 0.916016 0.500000
vt 0.916016 0.500000
vt 0.916016 0.500000
vt 0.916016 0.500000
vt 0.916016 0.500000
vt 0.947266 0.500000
vt 0.947266 0.500000
vt 0.947266 0.500000
vt 0.947266 0.500000
vt 0.947266 0.500000
vt 0.947266 0.500000
vt 0.947266 0.500000
vt 0.947266 0.500000
vt 0.947266 0.500000
vt 0.947266 0.500000
vt 0.947266 0.500000
vt 0.947266 0.500000
vt 0.947266 0.500000
vt 0.947266 0.500000
vt 0.947266 0.500000
vt 0.916016 0.500000
vt 0.916016 0.500000
vt 0.916016 0.500000
vt 0.916016 0.500000
vt 0.916016 0.500000
vt 0.916016 0.500000
vt 0.916016 0.500000
vt 0.916016 0.500000
vt 0.916016 0.500000
vt 0.916016 0.500000
vt 0.916016 0.500000
vt 0.916016 0.500000
vt 0.947266 0.500000
vt 0.947266 0.500000
vt 0.947266 0.500000
vt 0.947266 0.500000
vt 0.947266 0.500000
vt 0.947266 0.500000
vt 0.947266 0.500000
vt 0.947266 0.500000
vt 0.947266 0.500000
vt 0.947266 0.500000
vt 0.947266 0.500000
vt 0.947266 0.500000
vt 0.947266 0.500000
vt 0.947266 0.500000
vt 0.947266 0.500000
vt 0.916016 0.500000
vt 0.916016 0.500000
vt 0.916016 0.500000
vt 0.916016 0.500000
vt 0.947266 0.500000
vt 0.947266 0.500000
vt 0.947266 0.500000
vt 0.947266 0.500000
vt 0.947266 0.500000
vt 0.947266 0.500000
vt 0.947266 0.500000
vt 0.947266 0.500000
vt 0.947266 0.500000
vt 0.947266 0.500000
vt 0.947266 0.500000
vt 0.947266 0.500000
vt 0.947266 0.500000
vt 0.947266 0.500000
vt 0.947266 0.500000
vt 0.916016 0.500000
vt 0.916016 0.500000
vt 0.916016 0.500000
vt 0.916016 0.500000
vt 0.916016 0.500000
vt 0.947266 0.500000
vt 0.947266 0.500000
vt 0.947266 0.500000
vt 0.947266 0.500000
vt 0.947266 0.500000
vt 0.947266 0.500000
vt 0.947266 0.500000
vt 0.947266 0.500000
vt 0.947266 0.500000
vt 0.947266 0.500000
vt 0.947266 0.500000
vt 0.947266 0.500000
vt 0.947266 0.500000
vt 0.947266 0.500000
vt 0.947266 0.500000
vt 0.947266 0.500000
vt 0.947266 0.500000
vt 0.947266 0.500000
vt 0.947266 0.500000
vt 0.947266 0.500000
vt 0.947266 0.500000
vt 0.947266 0.500000
vt 0.916016 0.500000
vt 0.916016 0.500000
vt 0.916016 0.500000
vt 0.916016 0.500000
vt 0.916016 0.500000
vt 0.916016 0.500000
vt 0.916016 0.500000
vt 0.916016 0.500000
vt 0.916016 0.500000
vt 0.916016 0.500000
vt 0.916016 0.500000
vt 0.916016 0.500000
vt 0.916016 0.500000
vt 0.916016 0.500000
vt 0.916016 0.500000
vt 0.916016 0.500000
vt 0.916016 0.500000
vt 0.916016 0.500000
vt 0.916016 0.500000
vt 0.947266 0.500000
vt 0.947266 0.500000
vt 0.947266 0.500000
vt 0.947266 0.500000
vt 0.916016 0.500000
vt 0.916016 0.500000
vt 0.916016 0.500000
vt 0.916016 0.500000
vt 0.916016 0.500000
vt 0.916016 0.500000
vt 0.916016 0.500000
vt 0.916016 0.500000
vt 0.916016 0.500000
vt 0.916016 0.500000
vt 0.916016 0.500000
vt 0.916016 0.500000
vt 0.947266 0.500000
vt 0.947266 0.500000
vt 0.947266 0.500000
vt 0.947266 0.500000
vt 0.947266 0.500000
vt 0.947266 0.500000
vt 0.947266 0.500000
vt 0.947266 0.500000
vt 0.916016 0.500000
vt 0.916016 0.500000
vt 0.916016 0.500000
vt 0.916016 0.500000
vt 0.916016 0.500000
vt 0.916016 0.500000
vt 0.916016 0.500000
vt 0.916016 0.500000
vt 0.916016 0.500000
vt 0.916016 0.500000
vt 0.916016 0.500000
vt 0.916016 0.500000
vt 0.916016 0.500000
vt 0.916016 0.500000
vt 0.951172 0.500000
vt 0.951172 0.500000
vt 0.951172 0.500000
vt 0.951172 0.500000
vt 0.947266 0.500000
vt 0.947266 0.500000
vt 0.947266 0.500000
vt 0.947266 0.500000
vt 0.947266 0.500000
vt 0.947266 0.500000
vt 0.947266 0.500000
vt 0.947266 0.500000
vt 0.947266 0.500000
vt 0.947266 0.500000
vt 0.947266 0.500000
vt 0.947266 0.500000
vt 0.947266 0.500000
vt 0.916016 0.500000
vt 0.916016 0.500000
vt 0.916016 0.500000
vt 0.916016 0.500000
vt 0.916016 0.500000
vt 0.916016 0.500000
vt 0.916016 0.500000
vt 0.916016 0.500000
vt 0.916016 0.500000
vt 0.916016 0.500000
vt 0.916016 0.500000
vt 0.947266 0.500000
vt 0.947266 0.500000
vt 0.947266 0.500000
vt 0.947266 0.500000
vt 0.947266 0.500000
vt 0.947266 0.500000
vt 0.947266 0.500000
vt 0.947266 0.500000
vt 0.947266 0.500000
vt 0.947266 0.500000
vt 0.947266 0.500000
vt 0.947266 0.500000
vt 0.947266 0.500000
vt 0.947266 0.500000
vt 0.947266 0.500000
vt 0.947266 0.500000
vt 0.947266 0.500000
vt 0.947266 0.500000
vt 0.947266 0.500000
vt 0.947266 0.500000
vt 0.947266 0.500000
vt 0.947266 0.500000
vt 0.947266 0.500000
vt 0.947266 0.500000
vt 0.947266 0.500000
vt 0.947266 0.500000
vt 0.947266 0.500000
vt 0.947266 0.500000
vt 0.947266 0.500000
vt 0.916016 0.500000
vt 0.916016 0.500000
vt 0.916016 0.500000
vt 0.916016 0.500000
vt 0.947266 0.500000
vt 0.947266 0.500000
vt 0.947266 0.500000
vt 0.947266 0.500000
vt 0.947266 0.500000
vt 0.947266 0.500000
vt 0.947266 0.500000
vt 0.947266 0.500000
vt 0.947266 0.500000
vt 0.947266 0.500000
vt 0.916016 0.500000
vt 0.916016 0.500000
vt 0.916016 0.500000
vt 0.947266 0.500000
vt 0.947266 0.500000
vt 0.947266 0.500000
vt 0.947266 0.500000
vt 0.947266 0.500000
vt 0.947266 0.500000
vt 0.947266 0.500000
vt 0.947266 0.500000
vt 0.947266 0.500000
vt 0.947266 0.500000
vt 0.951172 0.500000
vt 0.951172 0.500000
vt 0.951172 0.500000
vt 0.951172 0.500000
vt 0.951172 0.500000
vt 0.951172 0.500000
vt 0.951172 0.500000
vt 0.951172 0.500000
vt 0.951172 0.500000
vt 0.951172 0.500000
vt 0.951172 0.500000
vt 0.951172 0.500000
vt 0.916016 0.500000
vt 0.916016 0.500000
vt 0.916016 0.500000
vt 0.916016 0.500000
vt 0.916016 0.500000
vt 0.916016 0.500000
vt 0.916016 0.500000
vt 0.916016 0.500000
vt 0.916016 0.500000
vt 0.916016 0.500000
vt 0.916016 0.500000
vt 0.947266 0.500000
vt 0.947266 0.500000
vt 0.947266 0.500000
vt 0.947266 0.500000
vt 0.947266 0.500000
vt 0.947266 0.500000
vt 0.947266 0.500000
vt 0.947266 0.500000
vt 0.916016 0.500000
vt 0.916016 0.500000
vt 0.916016 0.500000
vt 0.916016 0.500000
vn 0.0000 -1.0000 0.0000
vn 0.0000 -0.0000 1.0000
vn 0.0000 1.0000 0.0000
vn -0.0000 0.0000 -1.0000
vn 1.0000 -0.0000 0.0000
vn -1.0000 0.0000 0.0000
usemtl palette
s 1
f 244/1/1 238/2/1 237/3/1 243/4/1
f 142/5/2 130/6/2 141/7/2 140/8/2
f 272/9/3 274/10/3 273/11/3 271/12/3
f 220/13/1 216/14/1 215/15/1 219/16/1
f 114/17/2 112/18/2 113/19/2 111/20/2
f 133/21/2 131/22/2 132/23/2 130/6/2
f 139/24/2 138/25/2 129/26/2 137/27/2
f 215/15/1 209/28/1 214/29/1 213/30/1
f 191/31/4 200/32/4 199/33/4 198/34/4 190/35/4
f 164/36/4 166/37/4 165/38/4 163/39/4
f 108/40/2 105/41/2 116/42/2 115/43/2 117/44/2
f 136/45/2 126/46/2 135/47/2 134/48/2
f 298/49/3 302/50/3 301/51/3 300/52/3
f 154/53/2 149/54/2 148/55/2 153/56/2
f 96/57/5 98/58/5 97/59/5 92/60/5
f 91/61/5 95/62/5 94/63/5 93/64/5
f 232/65/1 230/66/1 231/67/1 229/68/1
f 27/69/6 21/70/6 26/71/6 25/72/6
f 254/73/1 249/74/1 253/75/1 252/76/1
f 248/77/1 246/78/1 247/79/1 245/80/1
f 67/81/5 72/82/5 71/83/5 68/84/5 64/85/5
f 148/55/2 146/86/2 147/87/2 145/88/2
f 184/89/4 187/90/4 186/91/4 181/92/4
f 144/93/2 137/94/2 136/45/2 143/95/2
f 77/96/5 82/97/5 81/98/5 84/99/5 83/100/5 80/101/5 79/102/5 73/103/5 74/104/5 75/105/5 78/106/5 76/107/5
f 38/108/6 37/109/6 32/110/6 36/111/6
f 160/112/4 162/113/4 161/114/4 159/115/4
f 54/116/5 56/117/5 55/118/5 53/119/5
f 24/120/6 22/121/6 23/122/6 21/70/6
f 44/123/5 46/124/5 45/125/5 43/126/5
f 35/127/6 31/128/6 34/129/6 33/130/6
f 263/131/3 266/132/3 265/133/3 261/134/3
f 212/135/1 210/136/1 211/137/1 209/28/1
f 40/138/5 42/139/5 41/140/5 39/141/5
f 97/59/5 100/142/5 99/143/5 95/62/5
f 49/144/5 52/145/5 51/146/5 46/124/5
f 224/147/1 222/148/1 223/149/1 221/150/1
f 4/151/6 2/152/6 3/153/6 1/154/6
f 66/155/5 70/156/5 69/157/5 65/158/5 63/159/5
f 256/160/3 258/161/3 257/162/3 255/163/3
f 262/164/3 264/165/3 263/131/3 258/161/3
f 55/118/5 59/166/5 58/167/5 57/168/5
f 286/169/3 288/170/3 287/171/3 285/172/3
f 290/173/3 292/174/3 291/175/3 289/176/3
f 189/177/4 193/178/4 192/179/4 202/180/4 201/181/4 204/182/4 203/183/4 200/184/4 191/185/4 190/186/4 188/187/4
f 8/188/6 6/189/6 7/190/6 5/191/6
f 14/192/6 10/193/6 13/194/6 9/195/6 11/196/6 12/197/6 15/198/6 16/199/6 19/200/6 20/201/6 17/202/6 18/203/6
f 156/204/4 158/205/4 157/206/4 155/207/4
f 171/208/4 177/209/4 176/210/4 169/211/4
f 165/38/4 175/212/4 174/213/4 173/214/4
f 236/215/1 234/216/1 235/217/1 233/218/1
f 48/219/5 50/220/5 49/144/5 47/221/5
f 183/222/4 185/223/4 184/224/4 182/225/4
f 170/226/4 172/227/4 171/228/4 162/229/4
f 161/114/4 169/211/4 168/230/4 167/231/4
f 90/232/5 92/233/5 91/234/5 89/235/5
f 179/236/4 181/92/4 180/237/4 178/238/4
f 86/239/5 88/240/5 87/241/5 85/242/5
f 110/243/2 106/244/2 107/245/2 105/246/2 108/247/2 117/248/2 120/249/2 121/250/2 118/251/2 119/252/2 109/253/2
f 228/254/1 226/255/1 227/256/1 225/257/1
f 102/258/5 104/259/5 103/260/5 101/261/5
f 218/262/1 217/263/1 212/135/1 216/14/1
f 208/264/1 206/265/1 207/266/1 205/267/1
f 195/268/4 197/269/4 196/270/4 194/271/4
f 30/272/6 29/273/6 24/120/6 28/274/6
f 13/275/6 10/276/6 11/277/6 9/278/6
f 242/279/1 240/280/1 241/281/1 239/282/1
f 152/283/2 150/284/2 151/285/2 149/286/2
f 268/287/3 270/288/3 269/289/3 267/290/3
f 60/291/5 62/292/5 61/293/5 56/117/5
f 129/294/2 127/295/2 128/296/2 126/46/2
f 297/297/3 299/298/3 298/49/3 296/299/3
f 125/300/2 123/301/2 124/302/2 122/303/2
f 257/162/3 261/134/3 260/304/3 259/305/3
f 251/306/1 250/307/1 248/308/1 249/309/1
f 36/310/6 32/311/6 28/312/6 27/313/6 31/314/6 35/315/6
f 61/316/5 64/317/5 68/318/5 66/319/5 63/320/5 59/321/5
f 282/322/3 284/323/3 283/324/3 281/325/3
f 276/326/3 280/327/3 279/328/3 278/329/3
f 294/330/3 296/299/3 295/331/3 293/332/3
f 275/333/3 277/334/3 276/335/3 274/336/3
f 238/337/1 236/338/1 233/339/1 237/340/1
f 304/341/3 306/342/3 305/343/3 303/344/3
